<svg xmlns="http://www.w3.org/2000/svg" width="74" height="74" viewBox="0 0 74 74" fill="none">
  <path d="M36.78 67.43C53.7075 67.43 67.43 53.7075 67.43 36.78C67.43 19.8525 53.7075 6.13 36.78 6.13C19.8525 6.13 6.13 19.8525 6.13 36.78C6.13 53.7075 19.8525 67.43 36.78 67.43Z" stroke="black" stroke-width="6.13" stroke-linecap="round" stroke-linejoin="round"/>
  <path d="M36.78 58.235C48.6293 58.235 58.235 48.6293 58.235 36.78C58.235 24.9307 48.6293 15.325 36.78 15.325C24.9307 15.325 15.325 24.9307 15.325 36.78C15.325 48.6293 24.9307 58.235 36.78 58.235Z" stroke="black" stroke-width="6.13" stroke-linecap="round" stroke-linejoin="round"/>
  <path d="M36.78 49.04C43.551 49.04 49.04 43.551 49.04 36.78C49.04 30.009 43.551 24.52 36.78 24.52C30.009 24.52 24.52 30.009 24.52 36.78C24.52 43.551 30.009 49.04 36.78 49.04Z" stroke="black" stroke-width="6.13" stroke-linecap="round" stroke-linejoin="round"/>
  <path d="M36.78 6.13V15.325" stroke="black" stroke-width="6.13" stroke-linecap="round" stroke-linejoin="round"/>
  <path d="M36.78 58.235V67.43" stroke="black" stroke-width="6.13" stroke-linecap="round" stroke-linejoin="round"/>
  <path d="M58.235 36.78H67.43" stroke="black" stroke-width="6.13" stroke-linecap="round" stroke-linejoin="round"/>
  <path d="M6.13 36.78H15.325" stroke="black" stroke-width="6.13" stroke-linecap="round" stroke-linejoin="round"/>
  <path d="M52.105 10.2371L47.5075 18.2" stroke="black" stroke-width="6.13" stroke-linecap="round" stroke-linejoin="round"/>
  <path d="M26.0525 55.36L21.455 63.3229" stroke="black" stroke-width="6.13" stroke-linecap="round" stroke-linejoin="round"/>
  <path d="M55.36 47.5075L63.3229 52.105" stroke="black" stroke-width="6.13" stroke-linecap="round" stroke-linejoin="round"/>
  <path d="M10.2371 21.455L18.2 26.0525" stroke="black" stroke-width="6.13" stroke-linecap="round" stroke-linejoin="round"/>
  <path d="M21.455 10.2371L26.0525 18.2" stroke="black" stroke-width="6.13" stroke-linecap="round" stroke-linejoin="round"/>
  <path d="M47.5075 55.36L52.105 63.3229" stroke="black" stroke-width="6.13" stroke-linecap="round" stroke-linejoin="round"/>
  <path d="M55.36 26.0525L63.3229 21.455" stroke="black" stroke-width="6.13" stroke-linecap="round" stroke-linejoin="round"/>
  <path d="M10.2371 52.105L18.2 47.5075" stroke="black" stroke-width="6.13" stroke-linecap="round" stroke-linejoin="round"/>
  <path d="M36.78 15.325V24.52" stroke="black" stroke-width="6.13" stroke-linecap="round" stroke-linejoin="round"/>
  <path d="M36.78 49.04V58.235" stroke="black" stroke-width="6.13" stroke-linecap="round" stroke-linejoin="round"/>
  <path d="M15.325 36.78H24.52" stroke="black" stroke-width="6.13" stroke-linecap="round" stroke-linejoin="round"/>
  <path d="M49.04 36.78H58.235" stroke="black" stroke-width="6.13" stroke-linecap="round" stroke-linejoin="round"/>
  <path d="M51.9518 21.6082L45.4478 28.1122" stroke="black" stroke-width="6.13" stroke-linecap="round" stroke-linejoin="round"/>
  <path d="M28.1122 45.4478L21.6082 51.9518" stroke="black" stroke-width="6.13" stroke-linecap="round" stroke-linejoin="round"/>
  <path d="M21.6082 21.6082L28.1122 28.1122" stroke="black" stroke-width="6.13" stroke-linecap="round" stroke-linejoin="round"/>
  <path d="M45.4478 45.4478L51.9518 51.9518" stroke="black" stroke-width="6.13" stroke-linecap="round" stroke-linejoin="round"/>
</svg>